<svg id="visual" viewBox="0 0 900 600" width="900" height="600" xmlns="http://www.w3.org/2000/svg" xmlns:xlink="http://www.w3.org/1999/xlink" version="1.1"><g stroke-width="1" stroke-linejoin="bevel"><path d="M477.7 284.1L509.1 293.1L508.7 280.9Z" fill="#720455" stroke="#720455"></path><path d="M509.1 293.1L528.4 269.8L508.7 280.9Z" fill="#260e45" stroke="#260e45"></path><path d="M508.7 280.9L464.3 219.6L477.7 284.1Z" fill="#3c0e4c" stroke="#3c0e4c"></path><path d="M509.1 293.1L541.4 299.1L528.4 269.8Z" fill="#310e49" stroke="#310e49"></path><path d="M514.1 396.4L550.1 313.9L509.1 293.1Z" fill="#1a0d41" stroke="#1a0d41"></path><path d="M509.1 293.1L550.1 313.9L541.4 299.1Z" fill="#470d4f" stroke="#470d4f"></path><path d="M607.8 195.8L517.1 202.8L528.4 269.8Z" fill="#0e0b3c" stroke="#0e0b3c"></path><path d="M513.1 208.6L464.3 219.6L508.7 280.9Z" fill="#520c51" stroke="#520c51"></path><path d="M517.1 202.8L513.1 208.6L528.4 269.8Z" fill="#0e0b3c" stroke="#0e0b3c"></path><path d="M528.4 269.8L513.1 208.6L508.7 280.9Z" fill="#260e45" stroke="#260e45"></path><path d="M417.3 247.9L411.9 304.1L477.7 284.1Z" fill="#520c51" stroke="#520c51"></path><path d="M477.7 284.1L456.3 380.2L509.1 293.1Z" fill="#5c0a53" stroke="#5c0a53"></path><path d="M464.3 219.6L417.3 247.9L477.7 284.1Z" fill="#470d4f" stroke="#470d4f"></path><path d="M603.4 273.9L528.4 269.8L541.4 299.1Z" fill="#470d4f" stroke="#470d4f"></path><path d="M513.1 208.6L449.7 200.8L464.3 219.6Z" fill="#5c0a53" stroke="#5c0a53"></path><path d="M473.7 150.5L449.7 200.8L513.1 208.6Z" fill="#260e45" stroke="#260e45"></path><path d="M464.3 219.6L439.7 203.6L417.3 247.9Z" fill="#030637" stroke="#030637"></path><path d="M449.7 200.8L439.7 203.6L464.3 219.6Z" fill="#670754" stroke="#670754"></path><path d="M420.3 359.1L456.3 380.2L477.7 284.1Z" fill="#720455" stroke="#720455"></path><path d="M370.6 213.6L398.3 255.8L417.3 247.9Z" fill="#3c0e4c" stroke="#3c0e4c"></path><path d="M417.3 247.9L398.3 255.8L411.9 304.1Z" fill="#0e0b3c" stroke="#0e0b3c"></path><path d="M408.3 396.4L420.3 359.1L401.9 392.2Z" fill="#670754" stroke="#670754"></path><path d="M411.9 304.1L420.3 359.1L477.7 284.1Z" fill="#720455" stroke="#720455"></path><path d="M550.1 313.9L603.4 273.9L541.4 299.1Z" fill="#3c0e4c" stroke="#3c0e4c"></path><path d="M456.3 380.2L514.1 396.4L509.1 293.1Z" fill="#260e45" stroke="#260e45"></path><path d="M550.1 313.9L612.8 289.1L603.4 273.9Z" fill="#260e45" stroke="#260e45"></path><path d="M534.4 175.6L520.1 176.5L517.1 202.8Z" fill="#310e49" stroke="#310e49"></path><path d="M517.1 202.8L520.1 176.5L513.1 208.6Z" fill="#3c0e4c" stroke="#3c0e4c"></path><path d="M424.3 129.5L395.9 165.5L439.7 203.6Z" fill="#670754" stroke="#670754"></path><path d="M456.3 380.2L507.7 402.2L514.1 396.4Z" fill="#5c0a53" stroke="#5c0a53"></path><path d="M510.7 407.4L530.1 400.2L514.1 396.4Z" fill="#310e49" stroke="#310e49"></path><path d="M514.1 396.4L530.1 400.2L550.1 313.9Z" fill="#310e49" stroke="#310e49"></path><path d="M607.8 195.8L534.4 175.6L517.1 202.8Z" fill="#1a0d41" stroke="#1a0d41"></path><path d="M626.8 345.2L612.8 289.1L550.1 313.9Z" fill="#260e45" stroke="#260e45"></path><path d="M370.6 213.6L376.9 255.8L398.3 255.8Z" fill="#1a0d41" stroke="#1a0d41"></path><path d="M398.3 255.8L376.9 255.8L411.9 304.1Z" fill="#260e45" stroke="#260e45"></path><path d="M439.3 429.5L510.7 407.4L507.7 402.2Z" fill="#470d4f" stroke="#470d4f"></path><path d="M507.7 402.2L510.7 407.4L514.1 396.4Z" fill="#310e49" stroke="#310e49"></path><path d="M401.9 392.2L420.3 359.1L364.6 383.2Z" fill="#1a0d41" stroke="#1a0d41"></path><path d="M420.3 359.1L408.3 396.4L456.3 380.2Z" fill="#5c0a53" stroke="#5c0a53"></path><path d="M456.3 380.2L436.7 421.5L507.7 402.2Z" fill="#310e49" stroke="#310e49"></path><path d="M549.4 141.5L473.7 150.5L520.1 176.5Z" fill="#3c0e4c" stroke="#3c0e4c"></path><path d="M520.1 176.5L473.7 150.5L513.1 208.6Z" fill="#470d4f" stroke="#470d4f"></path><path d="M439.7 203.6L370.6 213.6L417.3 247.9Z" fill="#030637" stroke="#030637"></path><path d="M349.6 300.9L420.3 359.1L411.9 304.1Z" fill="#520c51" stroke="#520c51"></path><path d="M626.8 345.2L637.2 292.1L612.8 289.1Z" fill="#5c0a53" stroke="#5c0a53"></path><path d="M612.8 289.1L637.2 292.1L603.4 273.9Z" fill="#5c0a53" stroke="#5c0a53"></path><path d="M603.4 273.9L607.8 195.8L528.4 269.8Z" fill="#470d4f" stroke="#470d4f"></path><path d="M395.9 165.5L370.6 213.6L439.7 203.6Z" fill="#260e45" stroke="#260e45"></path><path d="M340.9 290.9L349.6 300.9L376.9 255.8Z" fill="#260e45" stroke="#260e45"></path><path d="M376.9 255.8L349.6 300.9L411.9 304.1Z" fill="#0e0b3c" stroke="#0e0b3c"></path><path d="M601.4 391.2L626.8 345.2L550.1 313.9Z" fill="#520c51" stroke="#520c51"></path><path d="M439.3 429.5L436.7 421.5L384.9 427.4Z" fill="#1a0d41" stroke="#1a0d41"></path><path d="M408.3 396.4L436.7 421.5L456.3 380.2Z" fill="#520c51" stroke="#520c51"></path><path d="M627.8 205.6L607.8 195.8L603.4 273.9Z" fill="#5c0a53" stroke="#5c0a53"></path><path d="M534.4 175.6L549.4 141.5L520.1 176.5Z" fill="#3c0e4c" stroke="#3c0e4c"></path><path d="M598.4 413.4L601.4 391.2L530.1 400.2Z" fill="#670754" stroke="#670754"></path><path d="M530.1 400.2L601.4 391.2L550.1 313.9Z" fill="#030637" stroke="#030637"></path><path d="M517.1 448.5L530.1 400.2L510.7 407.4Z" fill="#310e49" stroke="#310e49"></path><path d="M384.9 427.4L436.7 421.5L408.3 396.4Z" fill="#030637" stroke="#030637"></path><path d="M436.7 421.5L439.3 429.5L507.7 402.2Z" fill="#1a0d41" stroke="#1a0d41"></path><path d="M321.2 254.9L340.9 290.9L376.9 255.8Z" fill="#720455" stroke="#720455"></path><path d="M349.6 300.9L364.6 383.2L420.3 359.1Z" fill="#670754" stroke="#670754"></path><path d="M601.8 146.5L549.4 141.5L534.4 175.6Z" fill="#470d4f" stroke="#470d4f"></path><path d="M424.3 129.5L439.7 203.6L449.7 200.8Z" fill="#670754" stroke="#670754"></path><path d="M641.2 222.6L627.8 205.6L603.4 273.9Z" fill="#030637" stroke="#030637"></path><path d="M607.8 195.8L601.8 146.5L534.4 175.6Z" fill="#470d4f" stroke="#470d4f"></path><path d="M295.2 387.2L364.6 383.2L349.6 300.9Z" fill="#720455" stroke="#720455"></path><path d="M401.9 392.2L384.9 427.4L408.3 396.4Z" fill="#1a0d41" stroke="#1a0d41"></path><path d="M647.8 238.9L641.2 222.6L603.4 273.9Z" fill="#0e0b3c" stroke="#0e0b3c"></path><path d="M637.2 292.1L647.8 238.9L603.4 273.9Z" fill="#520c51" stroke="#520c51"></path><path d="M666.2 290.9L647.8 238.9L637.2 292.1Z" fill="#470d4f" stroke="#470d4f"></path><path d="M439.3 429.5L517.1 448.5L510.7 407.4Z" fill="#670754" stroke="#670754"></path><path d="M517.1 448.5L598.4 413.4L530.1 400.2Z" fill="#670754" stroke="#670754"></path><path d="M671.5 341.2L670.5 332.1L626.8 345.2Z" fill="#030637" stroke="#030637"></path><path d="M647.8 238.9L642.2 207.8L641.2 222.6Z" fill="#1a0d41" stroke="#1a0d41"></path><path d="M641.2 222.6L642.2 207.8L627.8 205.6Z" fill="#470d4f" stroke="#470d4f"></path><path d="M627.8 205.6L601.8 146.5L607.8 195.8Z" fill="#0e0b3c" stroke="#0e0b3c"></path><path d="M670.5 332.1L637.2 292.1L626.8 345.2Z" fill="#1a0d41" stroke="#1a0d41"></path><path d="M670.5 332.1L666.2 290.9L637.2 292.1Z" fill="#470d4f" stroke="#470d4f"></path><path d="M647.8 238.9L698.5 170.6L642.2 207.8Z" fill="#520c51" stroke="#520c51"></path><path d="M473.7 150.5L424.3 129.5L449.7 200.8Z" fill="#030637" stroke="#030637"></path><path d="M473.7 78.2L424.3 129.5L473.7 150.5Z" fill="#520c51" stroke="#520c51"></path><path d="M365.6 143.5L364.9 170.6L395.9 165.5Z" fill="#030637" stroke="#030637"></path><path d="M395.9 165.5L364.9 170.6L370.6 213.6Z" fill="#030637" stroke="#030637"></path><path d="M370.6 213.6L321.2 254.9L376.9 255.8Z" fill="#310e49" stroke="#310e49"></path><path d="M331.6 207.8L321.2 254.9L370.6 213.6Z" fill="#0e0b3c" stroke="#0e0b3c"></path><path d="M340.9 290.9L304.6 285.1L349.6 300.9Z" fill="#1a0d41" stroke="#1a0d41"></path><path d="M364.6 383.2L384.9 427.4L401.9 392.2Z" fill="#030637" stroke="#030637"></path><path d="M439.3 429.5L445.7 522.7L517.1 448.5Z" fill="#670754" stroke="#670754"></path><path d="M665.2 143.5L601.8 146.5L627.8 205.6Z" fill="#260e45" stroke="#260e45"></path><path d="M549.4 141.5L547.1 108.3L473.7 150.5Z" fill="#030637" stroke="#030637"></path><path d="M364.9 170.6L331.6 207.8L370.6 213.6Z" fill="#720455" stroke="#720455"></path><path d="M671.5 341.2L626.8 345.2L656.2 381.2Z" fill="#470d4f" stroke="#470d4f"></path><path d="M656.2 381.2L626.8 345.2L601.4 391.2Z" fill="#260e45" stroke="#260e45"></path><path d="M717.5 280.9L695.5 266.8L666.2 290.9Z" fill="#0e0b3c" stroke="#0e0b3c"></path><path d="M603.4 124.3L547.1 108.3L549.4 141.5Z" fill="#310e49" stroke="#310e49"></path><path d="M629.8 429.5L656.2 381.2L601.4 391.2Z" fill="#0e0b3c" stroke="#0e0b3c"></path><path d="M280.2 253.8L304.6 285.1L321.2 254.9Z" fill="#0e0b3c" stroke="#0e0b3c"></path><path d="M321.2 254.9L304.6 285.1L340.9 290.9Z" fill="#720455" stroke="#720455"></path><path d="M364.6 383.2L339.6 443.4L384.9 427.4Z" fill="#260e45" stroke="#260e45"></path><path d="M424.3 129.5L365.6 143.5L395.9 165.5Z" fill="#470d4f" stroke="#470d4f"></path><path d="M364.9 170.6L296.2 189.6L331.6 207.8Z" fill="#670754" stroke="#670754"></path><path d="M601.8 146.5L603.4 124.3L549.4 141.5Z" fill="#0e0b3c" stroke="#0e0b3c"></path><path d="M665.2 143.5L603.4 124.3L601.8 146.5Z" fill="#670754" stroke="#670754"></path><path d="M630.2 446.5L629.8 429.5L598.4 413.4Z" fill="#260e45" stroke="#260e45"></path><path d="M598.4 413.4L629.8 429.5L601.4 391.2Z" fill="#5c0a53" stroke="#5c0a53"></path><path d="M717.5 280.9L666.2 290.9L670.5 332.1Z" fill="#470d4f" stroke="#470d4f"></path><path d="M666.2 290.9L695.5 266.8L647.8 238.9Z" fill="#260e45" stroke="#260e45"></path><path d="M642.2 207.8L665.2 143.5L627.8 205.6Z" fill="#720455" stroke="#720455"></path><path d="M630.2 446.5L639.2 434.4L629.8 429.5Z" fill="#310e49" stroke="#310e49"></path><path d="M629.8 429.5L649.8 425.4L656.2 381.2Z" fill="#1a0d41" stroke="#1a0d41"></path><path d="M768.3 387.2L773.9 352.1L671.5 341.2Z" fill="#310e49" stroke="#310e49"></path><path d="M639.2 434.4L649.8 425.4L629.8 429.5Z" fill="#520c51" stroke="#520c51"></path><path d="M671.5 341.2L717.5 280.9L670.5 332.1Z" fill="#0e0b3c" stroke="#0e0b3c"></path><path d="M588.4 477.5L630.2 446.5L598.4 413.4Z" fill="#5c0a53" stroke="#5c0a53"></path><path d="M639.2 434.4L672.5 425.5L649.8 425.4Z" fill="#470d4f" stroke="#470d4f"></path><path d="M600.8 77.3L537.4 82.2L547.1 108.3Z" fill="#5c0a53" stroke="#5c0a53"></path><path d="M547.1 108.3L473.7 78.2L473.7 150.5Z" fill="#260e45" stroke="#260e45"></path><path d="M424.3 129.5L394.9 95.3L365.6 143.5Z" fill="#470d4f" stroke="#470d4f"></path><path d="M534.1 79.2L473.7 78.2L547.1 108.3Z" fill="#670754" stroke="#670754"></path><path d="M600.8 77.3L534.1 79.2L537.4 82.2Z" fill="#030637" stroke="#030637"></path><path d="M537.4 82.2L534.1 79.2L547.1 108.3Z" fill="#670754" stroke="#670754"></path><path d="M597.4 493.7L588.4 477.5L542.1 528.8Z" fill="#520c51" stroke="#520c51"></path><path d="M517.1 448.5L588.4 477.5L598.4 413.4Z" fill="#310e49" stroke="#310e49"></path><path d="M402.3 81.2L394.9 95.3L424.3 129.5Z" fill="#470d4f" stroke="#470d4f"></path><path d="M331.6 207.8L280.2 253.8L321.2 254.9Z" fill="#260e45" stroke="#260e45"></path><path d="M295.2 387.2L339.6 443.4L364.6 383.2Z" fill="#260e45" stroke="#260e45"></path><path d="M296.2 189.6L280.2 253.8L331.6 207.8Z" fill="#670754" stroke="#670754"></path><path d="M296.2 189.6L364.9 170.6L365.6 143.5Z" fill="#470d4f" stroke="#470d4f"></path><path d="M295.2 387.2L349.6 300.9L264.2 344.1Z" fill="#720455" stroke="#720455"></path><path d="M384.9 427.4L426.3 507.7L439.3 429.5Z" fill="#670754" stroke="#670754"></path><path d="M268.8 108.3L296.2 189.6L365.6 143.5Z" fill="#5c0a53" stroke="#5c0a53"></path><path d="M264.2 344.1L349.6 300.9L304.6 285.1Z" fill="#260e45" stroke="#260e45"></path><path d="M271.8 263.8L304.6 285.1L280.2 253.8Z" fill="#3c0e4c" stroke="#3c0e4c"></path><path d="M271.8 263.8L270.8 277.9L304.6 285.1Z" fill="#030637" stroke="#030637"></path><path d="M207.5 237.9L271.8 263.8L280.2 253.8Z" fill="#3c0e4c" stroke="#3c0e4c"></path><path d="M698.5 170.6L665.2 143.5L642.2 207.8Z" fill="#720455" stroke="#720455"></path><path d="M603.4 124.3L600.8 77.3L547.1 108.3Z" fill="#670754" stroke="#670754"></path><path d="M773.9 352.1L717.5 280.9L671.5 341.2Z" fill="#520c51" stroke="#520c51"></path><path d="M738.9 215.6L698.5 170.6L647.8 238.9Z" fill="#310e49" stroke="#310e49"></path><path d="M473.7 78.2L402.3 81.2L424.3 129.5Z" fill="#720455" stroke="#720455"></path><path d="M394.9 95.3L372.9 72.2L365.6 143.5Z" fill="#0e0b3c" stroke="#0e0b3c"></path><path d="M634.2 471.7L672.5 425.5L639.2 434.4Z" fill="#3c0e4c" stroke="#3c0e4c"></path><path d="M649.8 425.4L672.5 425.5L656.2 381.2Z" fill="#030637" stroke="#030637"></path><path d="M634.2 471.7L639.2 434.4L630.2 446.5Z" fill="#3c0e4c" stroke="#3c0e4c"></path><path d="M597.4 493.7L605.8 484.7L588.4 477.5Z" fill="#260e45" stroke="#260e45"></path><path d="M588.4 477.5L605.8 484.7L630.2 446.5Z" fill="#720455" stroke="#720455"></path><path d="M534.1 79.2L464.3 60.3L473.7 78.2Z" fill="#5c0a53" stroke="#5c0a53"></path><path d="M473.7 78.2L458.7 58.3L402.3 81.2Z" fill="#5c0a53" stroke="#5c0a53"></path><path d="M375.9 494.5L426.3 507.7L384.9 427.4Z" fill="#5c0a53" stroke="#5c0a53"></path><path d="M542.1 528.8L588.4 477.5L517.1 448.5Z" fill="#5c0a53" stroke="#5c0a53"></path><path d="M605.8 484.7L634.2 471.7L630.2 446.5Z" fill="#3c0e4c" stroke="#3c0e4c"></path><path d="M641.8 532.8L634.2 471.7L605.8 484.7Z" fill="#260e45" stroke="#260e45"></path><path d="M460.7 0L458.7 58.3L464.3 60.3Z" fill="#0e0b3c" stroke="#0e0b3c"></path><path d="M464.3 60.3L458.7 58.3L473.7 78.2Z" fill="#520c51" stroke="#520c51"></path><path d="M738.9 215.6L647.8 238.9L695.5 266.8Z" fill="#260e45" stroke="#260e45"></path><path d="M678.5 115.3L603.4 124.3L665.2 143.5Z" fill="#0e0b3c" stroke="#0e0b3c"></path><path d="M678.2 99.3L600.8 77.3L603.4 124.3Z" fill="#0e0b3c" stroke="#0e0b3c"></path><path d="M534.1 79.2L501.1 0L464.3 60.3Z" fill="#470d4f" stroke="#470d4f"></path><path d="M230.8 405.2L264.2 344.1L201.5 359.2Z" fill="#520c51" stroke="#520c51"></path><path d="M270.8 277.9L264.2 344.1L304.6 285.1Z" fill="#260e45" stroke="#260e45"></path><path d="M301.6 479.7L345.6 473.5L339.6 443.4Z" fill="#030637" stroke="#030637"></path><path d="M339.6 443.4L345.6 473.5L384.9 427.4Z" fill="#1a0d41" stroke="#1a0d41"></path><path d="M351.9 492.7L345.6 473.5L301.6 479.7Z" fill="#470d4f" stroke="#470d4f"></path><path d="M345.6 473.5L375.9 494.5L384.9 427.4Z" fill="#470d4f" stroke="#470d4f"></path><path d="M368.9 538.8L445.7 522.7L426.3 507.7Z" fill="#030637" stroke="#030637"></path><path d="M426.3 507.7L445.7 522.7L439.3 429.5Z" fill="#030637" stroke="#030637"></path><path d="M505.1 544.7L542.1 528.8L517.1 448.5Z" fill="#720455" stroke="#720455"></path><path d="M701.2 530.8L695.5 441.4L634.2 471.7Z" fill="#670754" stroke="#670754"></path><path d="M357.6 54.3L372.9 72.2L409.3 0Z" fill="#520c51" stroke="#520c51"></path><path d="M402.3 81.2L372.9 72.2L394.9 95.3Z" fill="#1a0d41" stroke="#1a0d41"></path><path d="M345.6 473.5L351.9 492.7L375.9 494.5Z" fill="#0e0b3c" stroke="#0e0b3c"></path><path d="M375.9 494.5L368.9 538.8L426.3 507.7Z" fill="#030637" stroke="#030637"></path><path d="M288.2 443.5L339.6 443.4L295.2 387.2Z" fill="#030637" stroke="#030637"></path><path d="M698.5 170.6L678.5 115.3L665.2 143.5Z" fill="#310e49" stroke="#310e49"></path><path d="M641.8 532.8L605.8 484.7L597.4 493.7Z" fill="#5c0a53" stroke="#5c0a53"></path><path d="M634.2 471.7L695.5 441.4L672.5 425.5Z" fill="#3c0e4c" stroke="#3c0e4c"></path><path d="M672.5 425.5L768.3 387.2L656.2 381.2Z" fill="#520c51" stroke="#520c51"></path><path d="M781.9 273.9L738.9 215.6L717.5 280.9Z" fill="#670754" stroke="#670754"></path><path d="M717.5 280.9L738.9 215.6L695.5 266.8Z" fill="#720455" stroke="#720455"></path><path d="M713.5 113.5L678.2 99.3L678.5 115.3Z" fill="#720455" stroke="#720455"></path><path d="M445.7 522.7L505.1 544.7L517.1 448.5Z" fill="#0e0b3c" stroke="#0e0b3c"></path><path d="M479.7 578.8L505.1 544.7L445.7 522.7Z" fill="#310e49" stroke="#310e49"></path><path d="M262.8 419.4L288.2 443.5L295.2 387.2Z" fill="#030637" stroke="#030637"></path><path d="M713.5 113.5L678.5 115.3L698.5 170.6Z" fill="#030637" stroke="#030637"></path><path d="M678.5 115.3L678.2 99.3L603.4 124.3Z" fill="#260e45" stroke="#260e45"></path><path d="M230.8 405.2L262.8 419.4L295.2 387.2Z" fill="#470d4f" stroke="#470d4f"></path><path d="M409.3 0L372.9 72.2L402.3 81.2Z" fill="#5c0a53" stroke="#5c0a53"></path><path d="M271.2 101.5L268.8 108.3L365.6 143.5Z" fill="#260e45" stroke="#260e45"></path><path d="M288.2 443.5L301.6 479.7L339.6 443.4Z" fill="#310e49" stroke="#310e49"></path><path d="M351.9 492.7L368.9 538.8L375.9 494.5Z" fill="#030637" stroke="#030637"></path><path d="M257.2 451.4L301.6 479.7L288.2 443.5Z" fill="#3c0e4c" stroke="#3c0e4c"></path><path d="M529.4 600L571.4 549.8L542.1 528.8Z" fill="#520c51" stroke="#520c51"></path><path d="M542.1 528.8L571.4 549.8L597.4 493.7Z" fill="#720455" stroke="#720455"></path><path d="M749.9 100.5L713.5 113.5L795.3 165.5Z" fill="#520c51" stroke="#520c51"></path><path d="M316.6 529.8L368.9 538.8L351.9 492.7Z" fill="#3c0e4c" stroke="#3c0e4c"></path><path d="M505.1 544.7L529.4 600L542.1 528.8Z" fill="#720455" stroke="#720455"></path><path d="M571.4 549.8L641.8 532.8L597.4 493.7Z" fill="#670754" stroke="#670754"></path><path d="M301.2 71.3L365.6 143.5L372.9 72.2Z" fill="#5c0a53" stroke="#5c0a53"></path><path d="M296.2 189.6L219.8 190.6L280.2 253.8Z" fill="#260e45" stroke="#260e45"></path><path d="M200.8 322.1L264.2 344.1L270.8 277.9Z" fill="#470d4f" stroke="#470d4f"></path><path d="M554.4 0L534.1 79.2L600.8 77.3Z" fill="#670754" stroke="#670754"></path><path d="M554.4 0L501.1 0L534.1 79.2Z" fill="#3c0e4c" stroke="#3c0e4c"></path><path d="M458.7 58.3L411.9 0L402.3 81.2Z" fill="#0e0b3c" stroke="#0e0b3c"></path><path d="M554.4 0L600.8 77.3L614.8 0Z" fill="#3c0e4c" stroke="#3c0e4c"></path><path d="M768.3 387.2L672.5 425.5L695.5 441.4Z" fill="#1a0d41" stroke="#1a0d41"></path><path d="M768.3 387.2L671.5 341.2L656.2 381.2Z" fill="#3c0e4c" stroke="#3c0e4c"></path><path d="M738.9 215.6L781.3 198.8L698.5 170.6Z" fill="#260e45" stroke="#260e45"></path><path d="M230.8 405.2L257.2 451.4L262.8 419.4Z" fill="#310e49" stroke="#310e49"></path><path d="M262.8 419.4L257.2 451.4L288.2 443.5Z" fill="#720455" stroke="#720455"></path><path d="M301.6 479.7L316.6 529.8L351.9 492.7Z" fill="#3c0e4c" stroke="#3c0e4c"></path><path d="M230.8 405.2L295.2 387.2L264.2 344.1Z" fill="#310e49" stroke="#310e49"></path><path d="M207.5 237.9L270.8 277.9L271.8 263.8Z" fill="#520c51" stroke="#520c51"></path><path d="M773.9 352.1L781.9 273.9L717.5 280.9Z" fill="#3c0e4c" stroke="#3c0e4c"></path><path d="M501.1 0L460.7 0L464.3 60.3Z" fill="#520c51" stroke="#520c51"></path><path d="M303.6 32.2L301.2 71.3L357.6 54.3Z" fill="#470d4f" stroke="#470d4f"></path><path d="M357.6 54.3L301.2 71.3L372.9 72.2Z" fill="#1a0d41" stroke="#1a0d41"></path><path d="M301.2 71.3L271.2 101.5L365.6 143.5Z" fill="#260e45" stroke="#260e45"></path><path d="M209.8 154.5L296.2 189.6L268.8 108.3Z" fill="#0e0b3c" stroke="#0e0b3c"></path><path d="M209.8 154.5L219.8 190.6L296.2 189.6Z" fill="#720455" stroke="#720455"></path><path d="M219.8 190.6L207.5 237.9L280.2 253.8Z" fill="#470d4f" stroke="#470d4f"></path><path d="M459.3 579.8L479.7 578.8L445.7 522.7Z" fill="#5c0a53" stroke="#5c0a53"></path><path d="M571.4 549.8L628.8 600L641.8 532.8Z" fill="#3c0e4c" stroke="#3c0e4c"></path><path d="M780.9 436.4L768.3 387.2L695.5 441.4Z" fill="#1a0d41" stroke="#1a0d41"></path><path d="M644.8 9.2L600.8 77.3L678.2 99.3Z" fill="#5c0a53" stroke="#5c0a53"></path><path d="M414.9 600L459.3 579.8L445.7 522.7Z" fill="#030637" stroke="#030637"></path><path d="M201.5 243.8L200.8 322.1L270.8 277.9Z" fill="#260e45" stroke="#260e45"></path><path d="M158.1 212.8L201.5 243.8L207.5 237.9Z" fill="#310e49" stroke="#310e49"></path><path d="M207.5 237.9L201.5 243.8L270.8 277.9Z" fill="#0e0b3c" stroke="#0e0b3c"></path><path d="M781.9 273.9L778.9 203.8L738.9 215.6Z" fill="#720455" stroke="#720455"></path><path d="M768.3 387.2L780.9 365.2L773.9 352.1Z" fill="#670754" stroke="#670754"></path><path d="M773.9 352.1L797.3 335.1L781.9 273.9Z" fill="#0e0b3c" stroke="#0e0b3c"></path><path d="M460.7 0L411.9 0L458.7 58.3Z" fill="#260e45" stroke="#260e45"></path><path d="M411.9 0L409.3 0L402.3 81.2Z" fill="#310e49" stroke="#310e49"></path><path d="M299.2 544.7L316.6 529.8L301.6 479.7Z" fill="#310e49" stroke="#310e49"></path><path d="M368.9 538.8L414.9 600L445.7 522.7Z" fill="#0e0b3c" stroke="#0e0b3c"></path><path d="M200.8 322.1L201.5 359.2L264.2 344.1Z" fill="#310e49" stroke="#310e49"></path><path d="M250.8 525.7L301.6 479.7L257.2 451.4Z" fill="#1a0d41" stroke="#1a0d41"></path><path d="M827.3 254.9L781.3 198.8L778.9 203.8Z" fill="#0e0b3c" stroke="#0e0b3c"></path><path d="M778.9 203.8L781.3 198.8L738.9 215.6Z" fill="#1a0d41" stroke="#1a0d41"></path><path d="M749.9 100.5L724.9 85.3L713.5 113.5Z" fill="#3c0e4c" stroke="#3c0e4c"></path><path d="M713.5 113.5L724.9 85.3L678.2 99.3Z" fill="#030637" stroke="#030637"></path><path d="M780.9 365.2L797.3 335.1L773.9 352.1Z" fill="#670754" stroke="#670754"></path><path d="M853.6 191.6L795.3 165.5L781.3 198.8Z" fill="#3c0e4c" stroke="#3c0e4c"></path><path d="M724.9 85.3L701.2 60.2L678.2 99.3Z" fill="#260e45" stroke="#260e45"></path><path d="M644.8 9.2L614.8 0L600.8 77.3Z" fill="#0e0b3c" stroke="#0e0b3c"></path><path d="M459.3 579.8L487.7 600L479.7 578.8Z" fill="#1a0d41" stroke="#1a0d41"></path><path d="M479.7 578.8L509.1 600L505.1 544.7Z" fill="#470d4f" stroke="#470d4f"></path><path d="M414.9 600L487.7 600L459.3 579.8Z" fill="#5c0a53" stroke="#5c0a53"></path><path d="M487.7 600L509.1 600L479.7 578.8Z" fill="#030637" stroke="#030637"></path><path d="M212.5 96.3L209.8 154.5L268.8 108.3Z" fill="#310e49" stroke="#310e49"></path><path d="M219.8 190.6L181.5 181.6L207.5 237.9Z" fill="#310e49" stroke="#310e49"></path><path d="M212.5 96.3L268.8 108.3L271.2 101.5Z" fill="#5c0a53" stroke="#5c0a53"></path><path d="M509.1 600L529.4 600L505.1 544.7Z" fill="#470d4f" stroke="#470d4f"></path><path d="M701.2 60.2L644.8 9.2L678.2 99.3Z" fill="#1a0d41" stroke="#1a0d41"></path><path d="M698.5 0L688.5 17.2L701.2 60.2Z" fill="#5c0a53" stroke="#5c0a53"></path><path d="M688.5 17.2L649.2 0L644.8 9.2Z" fill="#5c0a53" stroke="#5c0a53"></path><path d="M795.3 165.5L713.5 113.5L698.5 170.6Z" fill="#470d4f" stroke="#470d4f"></path><path d="M641.2 600L689.5 537.8L641.8 532.8Z" fill="#5c0a53" stroke="#5c0a53"></path><path d="M641.8 532.8L689.5 537.8L634.2 471.7Z" fill="#520c51" stroke="#520c51"></path><path d="M768.3 387.2L827.3 422.5L780.9 365.2Z" fill="#310e49" stroke="#310e49"></path><path d="M780.9 365.2L852.6 364.2L797.3 335.1Z" fill="#260e45" stroke="#260e45"></path><path d="M353.6 0L303.6 32.2L357.6 54.3Z" fill="#310e49" stroke="#310e49"></path><path d="M301.2 71.3L283.2 34.2L271.2 101.5Z" fill="#520c51" stroke="#520c51"></path><path d="M409.3 0L353.6 0L357.6 54.3Z" fill="#670754" stroke="#670754"></path><path d="M689.5 537.8L701.2 530.8L634.2 471.7Z" fill="#720455" stroke="#720455"></path><path d="M388.3 600L414.9 600L368.9 538.8Z" fill="#030637" stroke="#030637"></path><path d="M250.8 525.7L299.2 544.7L301.6 479.7Z" fill="#3c0e4c" stroke="#3c0e4c"></path><path d="M316.6 529.8L317.2 572.8L368.9 538.8Z" fill="#720455" stroke="#720455"></path><path d="M203.8 433.5L257.2 451.4L230.8 405.2Z" fill="#3c0e4c" stroke="#3c0e4c"></path><path d="M738.5 510.7L780.9 436.4L695.5 441.4Z" fill="#470d4f" stroke="#470d4f"></path><path d="M201.5 359.2L203.8 433.5L230.8 405.2Z" fill="#1a0d41" stroke="#1a0d41"></path><path d="M827.3 254.9L778.9 203.8L781.9 273.9Z" fill="#260e45" stroke="#260e45"></path><path d="M781.3 198.8L795.3 165.5L698.5 170.6Z" fill="#310e49" stroke="#310e49"></path><path d="M688.5 17.2L644.8 9.2L701.2 60.2Z" fill="#670754" stroke="#670754"></path><path d="M644.8 9.2L649.2 0L614.8 0Z" fill="#1a0d41" stroke="#1a0d41"></path><path d="M311.2 0L283.2 34.2L303.6 32.2Z" fill="#0e0b3c" stroke="#0e0b3c"></path><path d="M303.6 32.2L283.2 34.2L301.2 71.3Z" fill="#720455" stroke="#720455"></path><path d="M179.5 129.5L181.5 181.6L209.8 154.5Z" fill="#520c51" stroke="#520c51"></path><path d="M209.8 154.5L181.5 181.6L219.8 190.6Z" fill="#3c0e4c" stroke="#3c0e4c"></path><path d="M201.5 243.8L155.1 242.9L200.8 322.1Z" fill="#0e0b3c" stroke="#0e0b3c"></path><path d="M200.8 322.1L153.5 347.1L201.5 359.2Z" fill="#470d4f" stroke="#470d4f"></path><path d="M130.1 422.4L196.5 451.4L203.8 433.5Z" fill="#520c51" stroke="#520c51"></path><path d="M337.6 600L388.3 600L368.9 538.8Z" fill="#260e45" stroke="#260e45"></path><path d="M775.9 553.8L738.5 510.7L701.2 530.8Z" fill="#030637" stroke="#030637"></path><path d="M701.2 530.8L738.5 510.7L695.5 441.4Z" fill="#310e49" stroke="#310e49"></path><path d="M698.5 0L701.2 60.2L791.9 0Z" fill="#260e45" stroke="#260e45"></path><path d="M853.6 191.6L799.3 152.6L795.3 165.5Z" fill="#310e49" stroke="#310e49"></path><path d="M795.3 165.5L799.3 152.6L749.9 100.5Z" fill="#310e49" stroke="#310e49"></path><path d="M793.9 56.2L701.2 60.2L724.9 85.3Z" fill="#310e49" stroke="#310e49"></path><path d="M852.6 364.2L827.6 297.1L797.3 335.1Z" fill="#3c0e4c" stroke="#3c0e4c"></path><path d="M797.3 335.1L827.6 297.1L781.9 273.9Z" fill="#720455" stroke="#720455"></path><path d="M827.6 297.1L827.3 254.9L781.9 273.9Z" fill="#310e49" stroke="#310e49"></path><path d="M264.2 600L317.2 572.8L299.2 544.7Z" fill="#520c51" stroke="#520c51"></path><path d="M299.2 544.7L317.2 572.8L316.6 529.8Z" fill="#260e45" stroke="#260e45"></path><path d="M130.1 422.4L203.8 433.5L201.5 359.2Z" fill="#260e45" stroke="#260e45"></path><path d="M203.8 433.5L196.5 451.4L257.2 451.4Z" fill="#520c51" stroke="#520c51"></path><path d="M202.8 45.2L212.5 96.3L271.2 101.5Z" fill="#520c51" stroke="#520c51"></path><path d="M198.5 487.7L250.8 525.7L257.2 451.4Z" fill="#030637" stroke="#030637"></path><path d="M353.6 0L311.2 0L303.6 32.2Z" fill="#520c51" stroke="#520c51"></path><path d="M283.2 34.2L202.8 45.2L271.2 101.5Z" fill="#260e45" stroke="#260e45"></path><path d="M529.4 600L628.8 600L571.4 549.8Z" fill="#470d4f" stroke="#470d4f"></path><path d="M689.5 537.8L709.5 600L701.2 530.8Z" fill="#030637" stroke="#030637"></path><path d="M158.1 212.8L207.5 237.9L181.5 181.6Z" fill="#720455" stroke="#720455"></path><path d="M158.1 212.8L155.1 242.9L201.5 243.8Z" fill="#030637" stroke="#030637"></path><path d="M142.1 185.6L158.1 212.8L181.5 181.6Z" fill="#720455" stroke="#720455"></path><path d="M128.7 261.8L153.5 347.1L200.8 322.1Z" fill="#5c0a53" stroke="#5c0a53"></path><path d="M628.8 600L641.2 600L641.8 532.8Z" fill="#5c0a53" stroke="#5c0a53"></path><path d="M825.6 472.7L794.9 463.5L819.3 503.7Z" fill="#5c0a53" stroke="#5c0a53"></path><path d="M738.5 510.7L794.9 463.5L780.9 436.4Z" fill="#030637" stroke="#030637"></path><path d="M780.9 436.4L827.3 422.5L768.3 387.2Z" fill="#0e0b3c" stroke="#0e0b3c"></path><path d="M264.2 600L337.6 600L317.2 572.8Z" fill="#310e49" stroke="#310e49"></path><path d="M317.2 572.8L337.6 600L368.9 538.8Z" fill="#720455" stroke="#720455"></path><path d="M212.5 96.3L179.5 129.5L209.8 154.5Z" fill="#0e0b3c" stroke="#0e0b3c"></path><path d="M794.9 463.5L809.3 445.4L780.9 436.4Z" fill="#720455" stroke="#720455"></path><path d="M793.9 56.2L724.9 85.3L749.9 100.5Z" fill="#3c0e4c" stroke="#3c0e4c"></path><path d="M688.5 17.2L698.5 0L649.2 0Z" fill="#310e49" stroke="#310e49"></path><path d="M181.5 486.5L198.5 487.7L196.5 451.4Z" fill="#470d4f" stroke="#470d4f"></path><path d="M196.5 451.4L198.5 487.7L257.2 451.4Z" fill="#5c0a53" stroke="#5c0a53"></path><path d="M250.8 525.7L264.2 600L299.2 544.7Z" fill="#720455" stroke="#720455"></path><path d="M809.3 445.4L827.3 422.5L780.9 436.4Z" fill="#720455" stroke="#720455"></path><path d="M98.7 246.9L128.7 261.8L155.1 242.9Z" fill="#520c51" stroke="#520c51"></path><path d="M155.1 242.9L128.7 261.8L200.8 322.1Z" fill="#310e49" stroke="#310e49"></path><path d="M98.7 246.9L155.1 242.9L158.1 212.8Z" fill="#310e49" stroke="#310e49"></path><path d="M140.1 131.3L142.1 185.6L181.5 181.6Z" fill="#260e45" stroke="#260e45"></path><path d="M827.3 422.5L852.6 364.2L780.9 365.2Z" fill="#670754" stroke="#670754"></path><path d="M871.6 250.8L853.6 191.6L827.3 254.9Z" fill="#3c0e4c" stroke="#3c0e4c"></path><path d="M181.5 486.5L206.5 518.8L198.5 487.7Z" fill="#030637" stroke="#030637"></path><path d="M198.5 487.7L206.5 518.8L250.8 525.7Z" fill="#720455" stroke="#720455"></path><path d="M152.1 478.7L181.5 486.5L196.5 451.4Z" fill="#310e49" stroke="#310e49"></path><path d="M130.1 422.4L201.5 359.2L153.5 347.1Z" fill="#720455" stroke="#720455"></path><path d="M827.3 254.9L853.6 191.6L781.3 198.8Z" fill="#0e0b3c" stroke="#0e0b3c"></path><path d="M818.3 82.3L793.9 56.2L749.9 100.5Z" fill="#670754" stroke="#670754"></path><path d="M871.6 250.8L827.3 254.9L827.6 297.1Z" fill="#670754" stroke="#670754"></path><path d="M128.7 261.8L120.7 338.2L153.5 347.1Z" fill="#3c0e4c" stroke="#3c0e4c"></path><path d="M120.7 338.2L121.7 350.1L153.5 347.1Z" fill="#0e0b3c" stroke="#0e0b3c"></path><path d="M212.5 96.3L165.1 42.2L179.5 129.5Z" fill="#520c51" stroke="#520c51"></path><path d="M179.5 129.5L140.1 131.3L181.5 181.6Z" fill="#030637" stroke="#030637"></path><path d="M239.8 0L202.8 45.2L283.2 34.2Z" fill="#3c0e4c" stroke="#3c0e4c"></path><path d="M818.3 82.3L749.9 100.5L799.3 152.6Z" fill="#260e45" stroke="#260e45"></path><path d="M900 275.9L871.6 250.8L827.6 297.1Z" fill="#310e49" stroke="#310e49"></path><path d="M641.2 600L709.5 600L689.5 537.8Z" fill="#470d4f" stroke="#470d4f"></path><path d="M794.9 463.5L825.6 472.7L809.3 445.4Z" fill="#470d4f" stroke="#470d4f"></path><path d="M809.3 445.4L825.6 472.7L827.3 422.5Z" fill="#030637" stroke="#030637"></path><path d="M793.9 520.7L794.9 463.5L738.5 510.7Z" fill="#310e49" stroke="#310e49"></path><path d="M827.3 422.5L863.6 442.4L852.6 364.2Z" fill="#0e0b3c" stroke="#0e0b3c"></path><path d="M775.9 553.8L793.9 520.7L738.5 510.7Z" fill="#1a0d41" stroke="#1a0d41"></path><path d="M311.2 0L239.8 0L283.2 34.2Z" fill="#720455" stroke="#720455"></path><path d="M867.6 110.5L818.3 82.3L799.3 152.6Z" fill="#720455" stroke="#720455"></path><path d="M900 275.9L877.6 246.9L871.6 250.8Z" fill="#310e49" stroke="#310e49"></path><path d="M871.6 250.8L877.6 246.9L853.6 191.6Z" fill="#5c0a53" stroke="#5c0a53"></path><path d="M881.6 128.3L867.6 110.5L799.3 152.6Z" fill="#1a0d41" stroke="#1a0d41"></path><path d="M165.1 42.2L140.1 131.3L179.5 129.5Z" fill="#0e0b3c" stroke="#0e0b3c"></path><path d="M142.1 185.6L98.7 246.9L158.1 212.8Z" fill="#0e0b3c" stroke="#0e0b3c"></path><path d="M108.1 360.1L121.7 350.1L120.7 338.2Z" fill="#3c0e4c" stroke="#3c0e4c"></path><path d="M243.8 600L250.8 525.7L201.8 590.8Z" fill="#3c0e4c" stroke="#3c0e4c"></path><path d="M243.8 600L264.2 600L250.8 525.7Z" fill="#0e0b3c" stroke="#0e0b3c"></path><path d="M116.1 377.2L130.1 422.4L153.5 347.1Z" fill="#3c0e4c" stroke="#3c0e4c"></path><path d="M181.5 486.5L139.1 550.8L206.5 518.8Z" fill="#0e0b3c" stroke="#0e0b3c"></path><path d="M709.5 600L775.9 553.8L701.2 530.8Z" fill="#520c51" stroke="#520c51"></path><path d="M793.9 520.7L819.3 503.7L794.9 463.5Z" fill="#470d4f" stroke="#470d4f"></path><path d="M108.1 360.1L116.1 377.2L121.7 350.1Z" fill="#470d4f" stroke="#470d4f"></path><path d="M121.7 350.1L116.1 377.2L153.5 347.1Z" fill="#470d4f" stroke="#470d4f"></path><path d="M108.1 360.1L120.7 338.2L8.4 352.1Z" fill="#1a0d41" stroke="#1a0d41"></path><path d="M843.3 554.8L819.3 503.7L793.9 520.7Z" fill="#260e45" stroke="#260e45"></path><path d="M825.6 472.7L842.6 474.5L827.3 422.5Z" fill="#520c51" stroke="#520c51"></path><path d="M130.1 422.4L152.1 478.7L196.5 451.4Z" fill="#720455" stroke="#720455"></path><path d="M98.7 246.9L120.7 338.2L128.7 261.8Z" fill="#720455" stroke="#720455"></path><path d="M116.1 377.2L121.1 429.5L130.1 422.4Z" fill="#720455" stroke="#720455"></path><path d="M140.1 131.3L122.1 157.5L142.1 185.6Z" fill="#3c0e4c" stroke="#3c0e4c"></path><path d="M819.3 503.7L842.6 474.5L825.6 472.7Z" fill="#0e0b3c" stroke="#0e0b3c"></path><path d="M900 314.1L900 275.9L827.6 297.1Z" fill="#0e0b3c" stroke="#0e0b3c"></path><path d="M79.4 234.8L98.7 246.9L142.1 185.6Z" fill="#310e49" stroke="#310e49"></path><path d="M68.7 389.4L121.1 429.5L116.1 377.2Z" fill="#260e45" stroke="#260e45"></path><path d="M130.1 422.4L121.1 429.5L152.1 478.7Z" fill="#720455" stroke="#720455"></path><path d="M201.8 590.8L250.8 525.7L206.5 518.8Z" fill="#0e0b3c" stroke="#0e0b3c"></path><path d="M842.6 474.5L863.6 442.4L827.3 422.5Z" fill="#5c0a53" stroke="#5c0a53"></path><path d="M900 314.1L827.6 297.1L900 329.2Z" fill="#0e0b3c" stroke="#0e0b3c"></path><path d="M877.6 246.9L900 213.8L853.6 191.6Z" fill="#470d4f" stroke="#470d4f"></path><path d="M900 329.2L827.6 297.1L852.6 364.2Z" fill="#720455" stroke="#720455"></path><path d="M900 414.4L900 329.2L852.6 364.2Z" fill="#520c51" stroke="#520c51"></path><path d="M239.8 0L201.5 0L202.8 45.2Z" fill="#1a0d41" stroke="#1a0d41"></path><path d="M202.8 45.2L165.1 42.2L212.5 96.3Z" fill="#720455" stroke="#720455"></path><path d="M113.7 127.3L102.7 158.6L122.1 157.5Z" fill="#670754" stroke="#670754"></path><path d="M163.5 28.2L165.1 42.2L202.8 45.2Z" fill="#670754" stroke="#670754"></path><path d="M121.1 429.5L132.7 482.5L152.1 478.7Z" fill="#720455" stroke="#720455"></path><path d="M122.7 529.8L139.1 550.8L181.5 486.5Z" fill="#030637" stroke="#030637"></path><path d="M113.7 127.3L122.1 157.5L140.1 131.3Z" fill="#030637" stroke="#030637"></path><path d="M122.1 157.5L102.7 158.6L142.1 185.6Z" fill="#0e0b3c" stroke="#0e0b3c"></path><path d="M95.7 109.5L113.7 127.3L140.1 131.3Z" fill="#670754" stroke="#670754"></path><path d="M900 275.9L900 213.8L877.6 246.9Z" fill="#470d4f" stroke="#470d4f"></path><path d="M881.6 128.3L799.3 152.6L853.6 191.6Z" fill="#670754" stroke="#670754"></path><path d="M835.3 50.2L791.9 0L793.9 56.2Z" fill="#520c51" stroke="#520c51"></path><path d="M835.3 50.2L793.9 56.2L818.3 82.3Z" fill="#3c0e4c" stroke="#3c0e4c"></path><path d="M793.9 56.2L791.9 0L701.2 60.2Z" fill="#310e49" stroke="#310e49"></path><path d="M900 213.8L900 203.6L853.6 191.6Z" fill="#030637" stroke="#030637"></path><path d="M867.6 110.5L835.3 50.2L818.3 82.3Z" fill="#520c51" stroke="#520c51"></path><path d="M102.7 158.6L79.4 234.8L142.1 185.6Z" fill="#520c51" stroke="#520c51"></path><path d="M98.7 246.9L46.4 246.9L120.7 338.2Z" fill="#3c0e4c" stroke="#3c0e4c"></path><path d="M108.1 360.1L68.7 389.4L116.1 377.2Z" fill="#1a0d41" stroke="#1a0d41"></path><path d="M900 169.5L881.6 128.3L853.6 191.6Z" fill="#310e49" stroke="#310e49"></path><path d="M867.6 110.5L878.6 55.2L835.3 50.2Z" fill="#470d4f" stroke="#470d4f"></path><path d="M201.5 0L163.5 28.2L202.8 45.2Z" fill="#670754" stroke="#670754"></path><path d="M165.1 42.2L95.7 109.5L140.1 131.3Z" fill="#030637" stroke="#030637"></path><path d="M139.1 550.8L201.8 590.8L206.5 518.8Z" fill="#0e0b3c" stroke="#0e0b3c"></path><path d="M900 203.6L900 169.5L853.6 191.6Z" fill="#1a0d41" stroke="#1a0d41"></path><path d="M775.9 553.8L843.3 554.8L793.9 520.7Z" fill="#470d4f" stroke="#470d4f"></path><path d="M900 528.8L900 490.7L842.6 474.5Z" fill="#720455" stroke="#720455"></path><path d="M900 421.5L900 414.4L863.6 442.4Z" fill="#260e45" stroke="#260e45"></path><path d="M709.5 600L779.9 600L775.9 553.8Z" fill="#470d4f" stroke="#470d4f"></path><path d="M900 421.5L863.6 442.4L900 490.7Z" fill="#310e49" stroke="#310e49"></path><path d="M863.6 442.4L900 414.4L852.6 364.2Z" fill="#470d4f" stroke="#470d4f"></path><path d="M900 490.7L863.6 442.4L842.6 474.5Z" fill="#310e49" stroke="#310e49"></path><path d="M139.1 550.8L196.5 600L201.8 590.8Z" fill="#0e0b3c" stroke="#0e0b3c"></path><path d="M201.8 590.8L196.5 600L243.8 600Z" fill="#470d4f" stroke="#470d4f"></path><path d="M779.9 600L791.3 600L775.9 553.8Z" fill="#720455" stroke="#720455"></path><path d="M130.7 30.2L95.7 109.5L165.1 42.2Z" fill="#0e0b3c" stroke="#0e0b3c"></path><path d="M113.7 127.3L78.4 126.3L102.7 158.6Z" fill="#310e49" stroke="#310e49"></path><path d="M102.7 158.6L59.4 196.6L79.4 234.8Z" fill="#0e0b3c" stroke="#0e0b3c"></path><path d="M16.4 378.2L68.7 389.4L8.4 352.1Z" fill="#1a0d41" stroke="#1a0d41"></path><path d="M121.1 429.5L66.4 484.5L132.7 482.5Z" fill="#3c0e4c" stroke="#3c0e4c"></path><path d="M122.7 529.8L181.5 486.5L152.1 478.7Z" fill="#720455" stroke="#720455"></path><path d="M900 169.5L900 126.3L881.6 128.3Z" fill="#3c0e4c" stroke="#3c0e4c"></path><path d="M881.6 128.3L900 126.3L867.6 110.5Z" fill="#030637" stroke="#030637"></path><path d="M791.3 600L843.3 554.8L775.9 553.8Z" fill="#3c0e4c" stroke="#3c0e4c"></path><path d="M122.7 529.8L152.1 478.7L132.7 482.5Z" fill="#3c0e4c" stroke="#3c0e4c"></path><path d="M66.4 484.5L122.7 529.8L132.7 482.5Z" fill="#3c0e4c" stroke="#3c0e4c"></path><path d="M78.4 126.3L59.4 196.6L102.7 158.6Z" fill="#0e0b3c" stroke="#0e0b3c"></path><path d="M79.4 234.8L46.4 246.9L98.7 246.9Z" fill="#0e0b3c" stroke="#0e0b3c"></path><path d="M163.5 28.2L130.7 30.2L165.1 42.2Z" fill="#720455" stroke="#720455"></path><path d="M106.1 0L130.7 30.2L163.5 28.2Z" fill="#030637" stroke="#030637"></path><path d="M49.4 109.5L78.4 126.3L95.7 109.5Z" fill="#0e0b3c" stroke="#0e0b3c"></path><path d="M95.7 109.5L78.4 126.3L113.7 127.3Z" fill="#520c51" stroke="#520c51"></path><path d="M59.4 196.6L46.4 246.9L79.4 234.8Z" fill="#310e49" stroke="#310e49"></path><path d="M900 126.3L878.6 55.2L867.6 110.5Z" fill="#1a0d41" stroke="#1a0d41"></path><path d="M835.3 50.2L842.3 0L791.9 0Z" fill="#1a0d41" stroke="#1a0d41"></path><path d="M846.6 0L842.3 0L835.3 50.2Z" fill="#720455" stroke="#720455"></path><path d="M900 528.8L842.6 474.5L819.3 503.7Z" fill="#520c51" stroke="#520c51"></path><path d="M878.6 55.2L846.6 0L835.3 50.2Z" fill="#3c0e4c" stroke="#3c0e4c"></path><path d="M791.3 600L829.6 600L843.3 554.8Z" fill="#5c0a53" stroke="#5c0a53"></path><path d="M843.3 554.8L900 528.8L819.3 503.7Z" fill="#470d4f" stroke="#470d4f"></path><path d="M68.7 389.4L66.4 484.5L121.1 429.5Z" fill="#3c0e4c" stroke="#3c0e4c"></path><path d="M122.7 529.8L89.7 541.7L139.1 550.8Z" fill="#470d4f" stroke="#470d4f"></path><path d="M0 453.5L66.4 484.5L68.7 389.4Z" fill="#470d4f" stroke="#470d4f"></path><path d="M883.6 557.8L900 528.8L843.3 554.8Z" fill="#720455" stroke="#720455"></path><path d="M829.6 600L883.6 557.8L843.3 554.8Z" fill="#1a0d41" stroke="#1a0d41"></path><path d="M66.4 484.5L89.7 541.7L122.7 529.8Z" fill="#470d4f" stroke="#470d4f"></path><path d="M139.1 550.8L110.1 600L196.5 600Z" fill="#5c0a53" stroke="#5c0a53"></path><path d="M82.4 19.2L49.4 109.5L95.7 109.5Z" fill="#720455" stroke="#720455"></path><path d="M78.4 126.3L0 152.5L59.4 196.6Z" fill="#720455" stroke="#720455"></path><path d="M0 242.9L0 288.1L46.4 246.9Z" fill="#310e49" stroke="#310e49"></path><path d="M900 126.3L900 31.2L878.6 55.2Z" fill="#0e0b3c" stroke="#0e0b3c"></path><path d="M878.6 55.2L900 31.2L846.6 0Z" fill="#670754" stroke="#670754"></path><path d="M201.5 0L106.1 0L163.5 28.2Z" fill="#1a0d41" stroke="#1a0d41"></path><path d="M130.7 30.2L82.4 19.2L95.7 109.5Z" fill="#030637" stroke="#030637"></path><path d="M8.4 352.1L120.7 338.2L0 288.1Z" fill="#030637" stroke="#030637"></path><path d="M8.4 352.1L68.7 389.4L108.1 360.1Z" fill="#720455" stroke="#720455"></path><path d="M13.4 600L95.7 600L89.7 541.7Z" fill="#520c51" stroke="#520c51"></path><path d="M0 288.1L120.7 338.2L46.4 246.9Z" fill="#3c0e4c" stroke="#3c0e4c"></path><path d="M8.4 352.1L11.4 376.4L16.4 378.2Z" fill="#470d4f" stroke="#470d4f"></path><path d="M16.4 378.2L0 390.4L68.7 389.4Z" fill="#1a0d41" stroke="#1a0d41"></path><path d="M106.1 0L82.4 19.2L130.7 30.2Z" fill="#470d4f" stroke="#470d4f"></path><path d="M0 242.9L46.4 246.9L0 233.8Z" fill="#030637" stroke="#030637"></path><path d="M8.4 352.1L0 347.2L11.4 376.4Z" fill="#260e45" stroke="#260e45"></path><path d="M95.7 600L110.1 600L89.7 541.7Z" fill="#470d4f" stroke="#470d4f"></path><path d="M89.7 541.7L110.1 600L139.1 550.8Z" fill="#670754" stroke="#670754"></path><path d="M0 233.8L59.4 196.6L0 195.6Z" fill="#720455" stroke="#720455"></path><path d="M0 233.8L46.4 246.9L59.4 196.6Z" fill="#1a0d41" stroke="#1a0d41"></path><path d="M0 195.6L59.4 196.6L0 152.5Z" fill="#030637" stroke="#030637"></path><path d="M0 288.1L0 347.2L8.4 352.1Z" fill="#5c0a53" stroke="#5c0a53"></path><path d="M106.1 0L87.7 0L82.4 19.2Z" fill="#720455" stroke="#720455"></path><path d="M0 152.5L78.4 126.3L49.4 109.5Z" fill="#520c51" stroke="#520c51"></path><path d="M900 31.2L900 0L846.6 0Z" fill="#520c51" stroke="#520c51"></path><path d="M0 85.2L49.4 109.5L82.4 19.2Z" fill="#470d4f" stroke="#470d4f"></path><path d="M0 347.2L0 390.4L11.4 376.4Z" fill="#5c0a53" stroke="#5c0a53"></path><path d="M11.4 376.4L0 390.4L16.4 378.2Z" fill="#310e49" stroke="#310e49"></path><path d="M31.4 528.8L89.7 541.7L66.4 484.5Z" fill="#720455" stroke="#720455"></path><path d="M87.7 0L74.4 0L82.4 19.2Z" fill="#520c51" stroke="#520c51"></path><path d="M0 131.3L0 152.5L49.4 109.5Z" fill="#520c51" stroke="#520c51"></path><path d="M829.6 600L900 600L883.6 557.8Z" fill="#310e49" stroke="#310e49"></path><path d="M883.6 557.8L900 600L900 528.8Z" fill="#520c51" stroke="#520c51"></path><path d="M0 85.2L0 131.3L49.4 109.5Z" fill="#030637" stroke="#030637"></path><path d="M0 390.4L0 453.5L68.7 389.4Z" fill="#520c51" stroke="#520c51"></path><path d="M0 453.5L7.4 474.7L66.4 484.5Z" fill="#3c0e4c" stroke="#3c0e4c"></path><path d="M7.4 474.7L31.4 528.8L66.4 484.5Z" fill="#030637" stroke="#030637"></path><path d="M0 0L0 85.2L82.4 19.2Z" fill="#310e49" stroke="#310e49"></path><path d="M0 453.5L0 537.7L7.4 474.7Z" fill="#030637" stroke="#030637"></path><path d="M7.4 474.7L0 537.7L31.4 528.8Z" fill="#260e45" stroke="#260e45"></path><path d="M31.4 528.8L13.4 600L89.7 541.7Z" fill="#030637" stroke="#030637"></path><path d="M0 537.7L0 541.8L31.4 528.8Z" fill="#520c51" stroke="#520c51"></path><path d="M74.4 0L0 0L82.4 19.2Z" fill="#3c0e4c" stroke="#3c0e4c"></path><path d="M0 541.8L13.4 600L31.4 528.8Z" fill="#720455" stroke="#720455"></path><path d="M0 541.8L0 600L13.4 600Z" fill="#670754" stroke="#670754"></path></g></svg>