<svg xmlns="http://www.w3.org/2000/svg" version="1.1" xmlns:xlink="http://www.w3.org/1999/xlink" xmlns:svgjs="http://svgjs.dev/svgjs" viewBox="0 0 800 800"><defs><linearGradient x1="50%" y1="0%" x2="50%" y2="100%" id="oooscillate-grad"><stop stop-color="#910A67" stop-opacity="1" offset="0%"></stop><stop stop-color="#030637" stop-opacity="1" offset="100%"></stop></linearGradient></defs><g stroke-width="2" stroke="url(#oooscillate-grad)" fill="none" stroke-linecap="round"><path d="M 0 572 Q 200 -100 400 400 Q 600 900 800 572" opacity="1.00"></path><path d="M 0 550 Q 200 -100 400 400 Q 600 900 800 550" opacity="0.96"></path><path d="M 0 528 Q 200 -100 400 400 Q 600 900 800 528" opacity="0.92"></path><path d="M 0 506 Q 200 -100 400 400 Q 600 900 800 506" opacity="0.89"></path><path d="M 0 484 Q 200 -100 400 400 Q 600 900 800 484" opacity="0.85"></path><path d="M 0 462 Q 200 -100 400 400 Q 600 900 800 462" opacity="0.81"></path><path d="M 0 440 Q 200 -100 400 400 Q 600 900 800 440" opacity="0.77"></path><path d="M 0 418 Q 200 -100 400 400 Q 600 900 800 418" opacity="0.73"></path><path d="M 0 396 Q 200 -100 400 400 Q 600 900 800 396" opacity="0.70"></path><path d="M 0 374 Q 200 -100 400 400 Q 600 900 800 374" opacity="0.66"></path><path d="M 0 352 Q 200 -100 400 400 Q 600 900 800 352" opacity="0.62"></path><path d="M 0 330 Q 200 -100 400 400 Q 600 900 800 330" opacity="0.58"></path><path d="M 0 308 Q 200 -100 400 400 Q 600 900 800 308" opacity="0.54"></path><path d="M 0 286 Q 200 -100 400 400 Q 600 900 800 286" opacity="0.51"></path><path d="M 0 264 Q 200 -100 400 400 Q 600 900 800 264" opacity="0.47"></path><path d="M 0 242 Q 200 -100 400 400 Q 600 900 800 242" opacity="0.43"></path><path d="M 0 220 Q 200 -100 400 400 Q 600 900 800 220" opacity="0.39"></path><path d="M 0 198 Q 200 -100 400 400 Q 600 900 800 198" opacity="0.35"></path><path d="M 0 176 Q 200 -100 400 400 Q 600 900 800 176" opacity="0.32"></path><path d="M 0 154 Q 200 -100 400 400 Q 600 900 800 154" opacity="0.28"></path><path d="M 0 132 Q 200 -100 400 400 Q 600 900 800 132" opacity="0.24"></path><path d="M 0 110 Q 200 -100 400 400 Q 600 900 800 110" opacity="0.20"></path><path d="M 0 88 Q 200 -100 400 400 Q 600 900 800 88" opacity="0.16"></path><path d="M 0 66 Q 200 -100 400 400 Q 600 900 800 66" opacity="0.13"></path><path d="M 0 44 Q 200 -100 400 400 Q 600 900 800 44" opacity="0.09"></path></g></svg>